<svg width="3000" height="1700" viewBox="0 0 3000 1700" fill="none" xmlns="http://www.w3.org/2000/svg">
<path d="M1789.99 931.441C1789.97 931.355 1789.95 931.26 1789.82 931.174C1789 930.534 1785.83 931.934 1784.32 932.184C1779.25 933.022 1775.61 929.213 1774.25 926.111C1773.28 923.908 1773.07 921.04 1772.56 917.637C1772.37 916.272 1772.26 914.225 1772.12 912.376C1771.93 910.044 1772.07 906.277 1769.43 905.724C1765.42 905.025 1766.04 911.78 1765.6 915.944C1765.01 921.93 1762.99 927.027 1757.83 929.066C1755.15 930.128 1752.16 930.249 1750.05 928.582C1746.35 925.662 1746.53 919.952 1746.53 913.43C1746.5 910.424 1746.46 907.409 1746.44 904.403C1746.44 901.863 1745.88 896.809 1746.92 895.203C1748.29 893.103 1752.79 894.33 1755.19 893.268C1755.89 892.957 1756.82 892.326 1756.55 891.108C1755.8 887.696 1749.66 890.175 1747.31 888.378C1744.45 886.184 1748.15 877.407 1744.27 875.826C1743.03 875.317 1741.84 876.077 1741.33 876.751C1740.11 878.366 1740.45 881.813 1740.45 884.629C1740.45 885.752 1740.48 886.832 1740.14 887.627C1739.88 888.24 1739.3 888.784 1738.69 889.035C1737.69 889.449 1736.58 889.372 1735.17 889.389C1733.15 889.449 1731.12 889.51 1729.1 889.562C1727.8 889.562 1726.33 889.769 1725.18 889.475C1720.11 888.179 1726.02 875.714 1719.73 875.688C1718.35 875.87 1717.87 876.457 1717.44 877.666C1716.43 880.526 1717.88 885.329 1716.73 888.102C1715.56 890.935 1710.49 888.931 1708.64 891.713C1708.39 892.084 1708.06 892.697 1708.2 893.432C1708.96 897.449 1714.82 894.814 1716.42 897.397C1717.43 899.029 1717.09 903.824 1717.02 906.398C1716.83 914.475 1716.75 920.021 1713.74 924.962C1713.09 926.034 1712.4 927.148 1711.45 927.917C1710.66 928.547 1709.81 929.187 1708.81 929.593C1707.61 930.076 1705.76 930.232 1704.45 929.765C1699.59 928.055 1699.5 919.468 1699.19 913.223C1699.01 910.009 1699.65 906.217 1696.57 905.716C1693.07 905.146 1692.77 910.864 1692.17 913.594C1690.83 919.693 1687.26 928.66 1681.15 929.938C1677.38 930.724 1675.23 928.038 1674.55 925.325C1674.22 923.986 1674.17 922.621 1674.11 920.678C1674.24 917.887 1674.71 914.302 1674.83 912.091C1675.14 907.469 1674.22 905.085 1671.44 905.621C1669.04 906.079 1668.88 908.748 1668.27 911.529C1666.73 919.226 1667.31 930.992 1671.94 934.689C1672.86 935.424 1673.89 936.106 1675.1 936.538C1680.34 938.387 1685.75 935.363 1688.68 933.143C1690.13 932.046 1692.13 930.284 1694.89 930.983C1698.8 931.986 1700.05 935.847 1704.3 936.711C1706.5 937.16 1708.34 936.175 1709.63 935.389C1711.98 933.955 1713.77 932.236 1717.02 931.692C1718.77 931.398 1720.3 932.236 1721.33 932.798C1723.81 934.137 1725.79 935.977 1728.99 936.538C1730.78 936.849 1732.34 936.072 1733.35 935.484C1735.73 934.085 1737.58 932.063 1740.73 931.519C1742.37 931.243 1743.75 932.029 1744.65 932.573C1746.85 933.912 1748.43 935.821 1751.3 936.495C1756.43 937.704 1761.51 933.091 1764.85 931.649C1766.31 931.018 1768.33 931.001 1769.65 931.778C1770.97 932.564 1772.02 933.679 1773.26 934.551C1775.53 936.149 1779.67 937.324 1783.51 936.357C1784.68 936.063 1785.76 935.622 1786.68 935.078C1787.58 934.568 1790.22 932.703 1789.99 931.441ZM1740.41 901.189C1740.39 902.848 1740.41 904.498 1740.41 906.156C1740.41 907.409 1740.41 908.359 1740.4 909.698C1740.35 912.583 1740.25 916.669 1739.53 919.606C1738.83 922.457 1737.52 924.522 1735.96 926.474C1734.74 928.012 1732.53 930.068 1729.54 929.333C1721.6 927.39 1722.63 916.954 1722.63 907.141C1722.63 904.411 1722.45 898.131 1723.55 896.662C1725.03 894.676 1731.75 894.918 1734.42 894.719C1735.14 894.676 1736.03 894.727 1736.75 894.684C1740.92 894.65 1740.41 897.319 1740.41 901.189ZM1768.49 887.316C1766.74 887.566 1765.87 888.361 1765.35 890.089C1764.65 892.594 1766.97 895.358 1769.55 894.9C1774.15 894.088 1773.97 887.074 1768.49 887.316ZM1660.07 911.098C1660.69 908.67 1661.23 904.178 1661.06 900.645C1660.83 897.198 1660.43 894.468 1659.94 892.516C1659.01 888.793 1657.84 885.337 1656.12 882.383C1648.85 870.013 1636.29 862.748 1616.03 863.007C1614.83 863.033 1614.33 863.05 1613.09 863.179C1610.97 863.404 1609.46 863.646 1607.64 863.888C1601.53 864.968 1594.63 866.16 1589.03 868.337C1587.12 869.08 1585.21 869.658 1583.53 870.583C1582.98 870.885 1581.94 871.429 1582.12 872.388C1582.42 873.969 1584.92 873.269 1586.13 872.958C1589.55 872.086 1594.36 870.272 1594.53 874.807C1594.83 882.806 1595.12 890.806 1595.41 898.805C1595.48 901.198 1595.54 903.591 1595.59 905.983C1595.65 909.119 1595.71 912.264 1595.76 915.408C1595.76 916.35 1595.76 917.291 1595.76 918.224C1595.82 921.904 1595.55 927.131 1598.22 928.262C1599.73 928.902 1600.63 927.537 1601.03 926.586C1601.97 924.401 1602.17 922.466 1602.41 918.803C1602.43 917.965 1602.46 917.075 1602.48 916.237C1602.54 913.525 1602.6 910.804 1602.66 908.091C1602.74 902.468 1602.83 896.844 1602.92 891.229C1602.95 888.413 1602.98 885.588 1603.01 882.772C1603.01 882.037 1603.01 881.303 1603.01 880.569C1603.03 878.85 1603 877.113 1603.01 875.394C1603.01 874.254 1602.96 873.053 1603.18 872.069C1603.4 871.127 1603.87 870.393 1604.59 869.952C1606.32 868.898 1613.51 868.527 1617.07 868.881C1619.64 869.183 1621.51 869.537 1623.65 870.082C1631.33 872.043 1637.9 875.645 1642.17 881.044C1644.51 884.007 1646.54 887.367 1647.8 891.393C1648.51 893.665 1649.05 895.617 1649.31 898.053C1650.03 904.411 1648.94 911.633 1647.41 915.615C1642.5 928.28 1633.1 934.223 1618.68 937.367C1616.14 937.929 1613.42 938.084 1611.59 938.205C1610.54 938.231 1609.51 938.266 1608.46 938.292C1607.35 938.292 1606.24 938.292 1605.12 938.292C1603.78 938.231 1602.57 938.24 1601.08 938.11C1597.88 937.877 1592.69 937.203 1589.59 936.737C1588.35 936.573 1586.21 936.072 1585.64 936.478C1585.55 936.547 1585.46 936.65 1585.51 936.832C1585.62 937.54 1587.63 938.197 1588.73 938.62C1591.76 939.803 1595.03 940.417 1598.53 941.186C1616.54 944.883 1634.77 939.821 1644.95 932.642C1652.18 927.563 1657.55 920.98 1660.07 911.098ZM1555.06 921.93C1557.38 914.389 1552.27 908.489 1547.28 906.519C1543.53 905.033 1537.16 904.938 1533.42 906.476C1532.68 906.778 1530.13 907.91 1530.73 909.033C1531.03 909.612 1532.18 909.456 1532.85 909.301C1534.7 908.869 1537.24 908.307 1539.58 908.731C1545.04 909.715 1549.89 913.568 1547.76 920.531C1547.44 921.576 1546.95 922.604 1546.4 923.433C1544.16 926.794 1537.18 930.776 1531 928.936C1527.28 927.83 1524.38 925.412 1523.26 921.714C1522.42 918.976 1522.47 914.432 1522.95 911.279C1523.32 909.361 1522.76 907.944 1521.27 908.281C1519.32 908.731 1518.36 914.233 1517.58 916.212C1515.61 921.205 1512.76 926.509 1506.84 927.485C1504.13 927.934 1502.74 925.222 1502.05 923.52C1500.47 919.676 1499.95 914.803 1498.92 910.398C1498.39 908.109 1498.2 905.647 1495.88 905.154C1494.05 904.765 1492.65 905.992 1491.92 906.916C1489.82 909.568 1488.62 913.162 1486.6 915.901C1485.83 916.937 1484.48 918.587 1482.38 918.19C1478.71 917.499 1478.02 912.376 1476.79 909.206C1476.28 907.884 1475.41 905.076 1473.36 905.465C1469.75 906.148 1468.55 913.508 1466.98 916.609C1466.29 917.965 1464.88 920.133 1462.53 919.166C1458.31 917.412 1460.73 906.847 1456.07 905.733C1453.25 905.059 1451.52 908.54 1450.57 910.45C1448.79 914.19 1446.95 918.622 1444.59 922.163C1443.57 923.684 1442.32 925.394 1440.19 925.774C1437.68 926.215 1436.65 923.788 1436.01 922.25C1434.66 919.019 1434.14 915.149 1433.41 911.244C1432.97 908.851 1433.15 906.545 1431.44 905.474C1428.93 903.919 1427.06 906.796 1425.71 907.849C1422.82 910.121 1419.63 911.91 1416.34 913.836C1415.39 914.397 1413.51 915.754 1411.89 915.469C1410.02 915.132 1409 913.724 1407.76 912.739C1405.4 910.873 1403.23 908.826 1401.07 906.752C1399.86 905.586 1398.37 903.306 1396.41 903.409C1395.84 903.496 1395.52 903.617 1395.13 903.85C1393.66 904.757 1393.03 906.873 1392.1 908.342C1390.64 910.648 1386.01 915.65 1383.03 916.186C1381.07 916.531 1379.55 914.51 1378.67 913.629C1375.77 910.717 1373.28 907.91 1369.39 905.923C1367.97 905.197 1365.13 903.919 1363.22 905.085C1361.7 906.018 1361.7 910.441 1361.02 912.35C1359.17 917.654 1356.24 923.442 1352.27 926.621C1350.83 927.77 1348.72 929.67 1345.81 928.953C1340.78 927.718 1339.69 921.637 1338.46 916.186C1337.88 913.499 1337.67 908.929 1335.55 908.437C1333.82 908.031 1333.48 909.802 1333.27 911.037C1333.02 912.48 1333.1 913.655 1333.14 915.788C1333.11 916.687 1333.08 917.576 1333.05 918.475C1332.91 920.695 1332.69 921.878 1332.08 923.278C1330.3 927.424 1324 931.865 1317.32 930.845C1315.8 930.612 1314.64 930.396 1313.42 929.93C1309.73 928.487 1307.58 925.671 1306.86 921.213C1306.64 919.797 1307.02 918.328 1307.35 917.386C1309.01 912.627 1313.74 910.743 1318.83 910.605C1320.73 910.303 1326.45 911.167 1327.1 909.854C1327.58 908.661 1325.36 907.694 1324.68 907.34C1321.79 905.871 1316.71 904.904 1312.54 905.888C1306.83 907.227 1302.22 910.51 1300.08 915.399C1297.34 921.671 1301.22 929.161 1304.84 932.046C1309.38 935.666 1316.8 937.618 1324.37 935.346C1328.16 934.206 1331.01 932.124 1335.06 931.424C1336.1 931.243 1337.22 931.519 1337.92 931.735C1341.63 932.858 1345.1 937.341 1350.19 935.786C1351.84 935.285 1353.32 934.447 1354.59 933.54C1357.94 931.165 1360.72 927.727 1362.47 923.762C1363.56 921.282 1364.46 918.164 1365.87 915.926C1366.69 914.596 1368.52 913.758 1370.31 914.778C1371.06 915.209 1371.77 915.736 1372.38 916.315C1372.96 916.859 1373.62 917.404 1373.97 918.164C1374.43 919.157 1374.16 920.289 1373.62 920.98C1373.03 921.732 1372.01 922.215 1371.24 922.785C1369.8 923.839 1368.36 925.144 1367.28 926.569C1364.79 929.886 1365.24 933.057 1368.65 935.069C1373.94 938.197 1386.58 938.749 1388.18 932.072C1388.77 929.593 1387.57 927.105 1386.86 925.463C1386.49 924.643 1385.7 923.494 1386.06 922.163C1386.45 920.755 1387.76 920.038 1388.79 919.261C1390.97 917.438 1393.16 915.624 1395.35 913.801C1396.32 913.05 1397.55 912.894 1398.74 913.361C1399.73 913.75 1400.48 914.432 1401.25 915.037C1402.14 915.728 1404.36 917.326 1403.98 919.131C1403.73 920.332 1402.68 920.937 1401.82 921.55C1399.5 923.209 1393.19 928.305 1396.68 932.297C1397.32 933.031 1398.2 933.644 1399.05 934.145C1400.63 935.069 1402.58 935.674 1404.59 936.123C1410.74 937.497 1417.58 935.881 1418.81 931.061C1420 926.37 1414.02 922.751 1418.59 919.745C1419.39 919.339 1420.17 918.924 1420.97 918.509C1421.98 918.06 1423.29 917.17 1424.97 917.499C1427.91 918.06 1428.16 921.326 1429.15 923.839C1430.69 927.77 1433.33 934.499 1437.33 935.726C1439.42 936.365 1441.17 935.104 1442.26 934.275C1445.42 931.856 1447.56 928.159 1449.91 924.936C1450.72 923.848 1452.39 921.205 1454.49 921.593C1457.96 922.233 1458.25 929.213 1459.29 932.512C1459.72 933.886 1460.21 935.484 1461.62 935.856C1463.56 936.374 1464.91 933.463 1465.44 932.245C1466.99 928.729 1469 920.868 1472.61 919.866C1474.26 919.408 1475.44 920.453 1476.05 921.36C1477.93 924.176 1477.4 929.705 1478.6 933.117C1479.05 934.396 1480.04 936.4 1482.08 935.977C1484.39 935.501 1484.96 932.227 1485.65 930.076C1486.81 926.37 1488.06 921.896 1491.81 920.781C1494.54 919.969 1495.55 922.5 1496.21 924.168C1497.81 928.271 1498.5 934.05 1502.5 935.709C1504.49 936.529 1507.08 935.795 1508.53 935.044C1512.05 933.247 1513.97 929.99 1518.51 929.23C1519.79 929.014 1520.96 929.593 1521.72 929.981C1523.93 931.104 1525.67 932.746 1527.79 933.99C1533.79 937.497 1541.95 935.89 1546.84 932.625C1550.5 930.189 1553.64 926.578 1555.06 921.93ZM1378.77 932.979C1375.88 933.791 1371.22 932.089 1371.99 929.057C1372.58 926.759 1375.63 925.386 1376.92 925.36C1381.02 925.386 1383.03 931.787 1378.77 932.979ZM1411.55 930.387C1411.03 931.519 1409.74 932.115 1408.34 932.366C1405.48 932.893 1401.28 930.837 1402.49 927.874C1403.28 925.913 1406.21 924.755 1407.24 924.703C1408.01 924.548 1408.5 924.695 1408.96 924.876C1410.49 925.507 1412.59 928.09 1411.55 930.387ZM1431.83 887.316C1430.08 887.566 1429.21 888.361 1428.69 890.089C1427.99 892.594 1430.31 895.358 1432.89 894.9C1437.5 894.088 1437.31 887.074 1431.83 887.316ZM1290.93 933.791C1290.81 931.795 1290.7 929.8 1290.58 927.804C1290.5 926.293 1290.43 924.781 1290.35 923.269C1289.41 907.832 1288.48 895.6 1287.54 880.163C1286.66 870.851 1285.87 867.084 1284.57 865.521C1283.26 863.801 1281.31 863.62 1276.74 863.888C1275.36 863.983 1274.02 864.069 1273.09 864.812C1271.32 866.125 1269.2 873.304 1268.06 876.241C1264.43 886.296 1260.87 896.377 1257.25 906.433C1255.73 910.337 1254.5 914.337 1252.94 918.147C1252.22 919.892 1251.51 921.991 1249.46 922.371C1247.66 922.699 1246.87 921.092 1246.42 919.995C1245.64 916.453 1244.99 912.652 1244.18 908.368C1242.55 898.546 1240.92 888.724 1239.29 878.91C1238.72 875.455 1237.66 868.838 1236.25 867.637C1235.11 866.324 1229.89 865.788 1227.15 866.626C1223.2 867.836 1223.09 874.746 1221.74 879.748C1219.16 892.637 1211.02 932.435 1210.16 936.149C1209.78 937.92 1210.08 939.898 1211.09 940.685C1212.36 941.669 1214.68 941.471 1215.84 940.555C1217.49 939.294 1218.01 934.914 1218.64 931.821C1220.75 921.032 1223.11 906.847 1224.94 896.213C1225.77 892.464 1226.07 887.238 1229.13 887.454C1232.22 887.609 1232.35 892.974 1233.67 899.392C1233.89 900.783 1236.51 914.302 1237.93 921.766C1238.8 926.103 1239.32 929.904 1240.81 932.996C1242.26 935.812 1246.01 937.903 1249.81 936.339C1253.98 934.62 1255.25 928.997 1256.93 924.755C1260.9 914.423 1264.88 904.083 1268.85 893.751C1270.2 890.166 1271.56 886.59 1272.9 883.005C1273.39 881.83 1274.16 880.102 1276.03 880.146C1279.46 879.843 1279.8 886.927 1280.4 895.842C1280.87 909.093 1281.34 919.131 1281.81 932.383C1282.04 938.387 1281.3 943.933 1286.74 944.01C1287.35 944.019 1287.84 943.984 1288.33 943.838C1291.57 942.81 1291.2 938.421 1290.93 933.791Z" fill="white"/>
</svg>
